<svg version="1.2" baseProfile="tiny-ps" xmlns="http://www.w3.org/2000/svg" viewBox="0 0 65 63" width="65" height="63">
	<title>Services</title>
	<style>
		tspan { white-space:pre }
		.shp0 { fill: #1275b9 } 
		.shp1 { fill: #ffffff } 
	</style>
	<g id="Services">
		<g id="Easy Customize">
			<path id="Shape 189" class="shp0" d="M32.76 0C50.41 0 64.71 14.1 64.71 31.5C64.71 48.9 50.41 63 32.76 63C15.12 63 0.82 48.9 0.82 31.5C0.82 14.1 15.12 0 32.76 0Z" />
			<path id="Settings" class="shp1" d="M33.59 38.3C30.28 38.3 27.58 35.59 27.58 32.27C27.58 28.95 30.28 26.25 33.59 26.25C36.91 26.25 39.6 28.95 39.6 32.27C39.6 35.59 36.91 38.3 33.59 38.3ZM33.59 28.26C31.38 28.26 29.58 30.06 29.58 32.27C29.58 34.49 31.38 36.29 33.59 36.29C35.8 36.29 37.6 34.49 37.6 32.27C37.6 30.06 35.8 28.26 33.59 28.26ZM30.92 44.29C30.85 44.29 30.77 44.28 30.7 44.26C28.88 43.85 27.14 43.02 25.67 41.85C25.47 41.68 25.33 41.44 25.3 41.17C25.27 40.91 25.35 40.65 25.51 40.44L25.91 39.94C25.21 39.28 24.6 38.51 24.1 37.68L23.53 37.96C23.04 38.2 22.44 37.99 22.19 37.49C21.37 35.79 20.95 33.96 20.94 32.05C20.94 31.79 21.05 31.53 21.24 31.34C21.42 31.15 21.68 31.05 21.94 31.05L22.57 31.05C22.65 30.08 22.87 29.13 23.21 28.22L22.64 27.95C22.4 27.83 22.22 27.63 22.13 27.37C22.04 27.12 22.06 26.85 22.17 26.61C22.98 24.92 24.18 23.41 25.63 22.24C26.07 21.9 26.7 21.96 27.04 22.4L27.44 22.89C28.24 22.35 29.12 21.93 30.04 21.62L29.9 21.01C29.84 20.75 29.88 20.47 30.02 20.25C30.17 20.02 30.39 19.86 30.65 19.8C32.46 19.39 34.4 19.38 36.22 19.79C36.76 19.91 37.1 20.44 36.97 20.98L36.84 21.6C37.76 21.9 38.64 22.32 39.45 22.85L39.84 22.36C40 22.15 40.25 22.01 40.51 21.98C40.77 21.95 41.04 22.03 41.25 22.19C42.71 23.36 43.92 24.86 44.74 26.54C44.85 26.78 44.87 27.05 44.78 27.31C44.7 27.56 44.51 27.76 44.28 27.88L43.71 28.16C44.05 29.08 44.28 30.02 44.37 30.99L44.98 30.98C45.23 30.97 45.51 31.09 45.7 31.27C45.89 31.46 46 31.72 46 31.99C46 33.93 45.58 35.77 44.76 37.47C44.64 37.71 44.44 37.9 44.19 37.98C43.93 38.07 43.66 38.06 43.42 37.94L42.85 37.66C42.35 38.49 41.74 39.26 41.05 39.93L41.44 40.42C41.79 40.85 41.72 41.49 41.29 41.83C39.82 43 38.09 43.84 36.27 44.26C35.72 44.39 35.19 44.04 35.07 43.5L34.93 42.89C33.95 43.03 33.01 43.03 32.04 42.89L31.9 43.51C31.84 43.77 31.68 43.99 31.46 44.13C31.29 44.24 31.11 44.29 30.92 44.29ZM27.74 40.86C28.49 41.36 29.32 41.75 30.17 42.04L30.29 41.52C30.35 41.26 30.51 41.03 30.73 40.89C30.96 40.75 31.23 40.7 31.49 40.76C32.83 41.06 34.12 41.06 35.47 40.75C35.72 40.69 36 40.74 36.22 40.88C36.45 41.02 36.61 41.25 36.67 41.51L36.79 42.03C37.64 41.75 38.46 41.35 39.22 40.85L38.89 40.43C38.54 40 38.61 39.37 39.05 39.02C40.08 38.19 40.94 37.12 41.52 35.91C41.76 35.41 42.36 35.2 42.86 35.44L43.35 35.68C43.66 34.81 43.87 33.92 43.95 33L43.43 33.01C43.16 32.98 42.9 32.91 42.71 32.72C42.52 32.53 42.41 32.28 42.41 32.01C42.41 30.66 42.1 29.35 41.5 28.12C41.26 27.62 41.47 27.02 41.97 26.77L42.45 26.54C41.98 25.77 41.41 25.06 40.76 24.43L40.42 24.85C40.08 25.28 39.45 25.36 39.02 25.01C37.96 24.17 36.75 23.59 35.43 23.29C34.89 23.17 34.55 22.64 34.67 22.1L34.79 21.57C33.9 21.46 32.98 21.47 32.09 21.58L32.21 22.11C32.27 22.36 32.22 22.64 32.08 22.86C31.94 23.09 31.71 23.25 31.46 23.31C30.15 23.61 28.92 24.21 27.88 25.04C27.45 25.39 26.82 25.32 26.47 24.89L26.14 24.47C25.49 25.1 24.92 25.82 24.46 26.59L24.94 26.83C25.44 27.07 25.65 27.67 25.41 28.17C24.82 29.39 24.53 30.69 24.53 32.03C24.53 32.58 24.08 33.05 23.53 33.05L23 33.05C23.08 33.96 23.29 34.84 23.6 35.69L24.09 35.46C24.33 35.34 24.6 35.33 24.85 35.41C25.1 35.5 25.31 35.68 25.43 35.92C26.01 37.13 26.87 38.21 27.91 39.04C28.12 39.2 28.25 39.44 28.28 39.71C28.31 39.97 28.23 40.24 28.07 40.45L27.74 40.86Z" />
		</g>
	</g>
</svg>