<svg version="1.2" baseProfile="tiny-ps" xmlns="http://www.w3.org/2000/svg" viewBox="0 0 66 65" width="66" height="65">
	<title>Services</title>
	<style>
		tspan { white-space:pre }
		.shp0 { fill: #ffffff;stroke: #1275b9;paint-order:stroke fill markers;stroke-width: 2 } 
		.shp1 { fill: #1175b9 } 
	</style>
	<g id="Services">
		<g id="Responsive Design">
			<path id="Shape 189" class="shp0" d="M32.76 1C50.41 1 64.71 15.1 64.71 32.5C64.71 49.9 50.41 64 32.76 64C15.12 64 0.82 49.9 0.82 32.5C0.82 15.1 15.12 1 32.76 1Z" />
			<path id="Tablet" class="shp1" d="M39.27 47.98L26.74 47.98C24.1 47.98 21.96 45.75 21.96 43.02L21.96 22.94C21.96 20.21 24.1 17.99 26.74 17.99L39.27 17.99C41.9 17.99 44.04 20.21 44.04 22.94L44.04 43.02C44.04 45.75 41.9 47.98 39.27 47.98ZM26.74 20C25.17 20 23.9 21.32 23.9 22.94L23.9 43.02C23.9 44.64 25.17 45.97 26.74 45.97L39.27 45.97C40.83 45.97 42.1 44.64 42.1 43.02L42.1 22.94C42.1 21.32 40.83 20 39.27 20L26.74 20ZM33 44.82C32.47 44.82 32.03 44.37 32.03 43.81C32.03 43.26 32.47 42.81 33 42.81C33.53 42.81 33.97 43.26 33.97 43.81C33.97 44.37 33.53 44.82 33 44.82ZM33.97 23.43L32.03 23.43C31.5 23.43 31.07 22.98 31.07 22.43C31.07 21.87 31.5 21.42 32.03 21.42L33.97 21.42C34.5 21.42 34.94 21.87 34.94 22.43C34.94 22.98 34.5 23.43 33.97 23.43Z" />
		</g>
	</g>
</svg>