<svg version="1.2" baseProfile="tiny-ps" xmlns="http://www.w3.org/2000/svg" viewBox="0 0 65 63" width="65" height="63">
	<title>Services</title>
	<style>
		tspan { white-space:pre }
		.shp0 { fill: #1275b9 } 
		.shp1 { fill: #ffffff } 
	</style>
	<g id="Services">
		<g id="Fast and reliable">
			<path id="Shape 189" class="shp0" d="M32.76 0C50.41 0 64.71 14.1 64.71 31.5C64.71 48.9 50.41 63 32.76 63C15.12 63 0.82 48.9 0.82 31.5C0.82 14.1 15.12 0 32.76 0Z" />
			<path id="Dashboard" class="shp1" d="M36.7 28.65C36.7 28.65 35.72 34.36 34.68 35.59C33.63 36.83 31.78 36.98 30.55 35.93C29.32 34.87 29.18 33.01 30.22 31.78C31.27 30.54 36.7 28.65 36.7 28.65ZM42.9 41.16L22.8 41.16C22.49 41.16 22.2 41.02 22.01 40.77C20.31 38.55 19.34 35.56 19.34 32.59C19.34 25.04 25.4 18.9 32.85 18.9C40.31 18.9 46.37 25.03 46.37 32.56C46.37 35.56 45.39 38.55 43.69 40.77C43.5 41.02 43.21 41.16 42.9 41.16ZM23.31 39.15L42.39 39.15C43.65 37.32 44.37 34.95 44.37 32.56C44.37 26.14 39.2 20.91 32.85 20.91C26.5 20.91 21.34 26.15 21.34 32.59C21.34 34.96 22.05 37.32 23.31 39.15ZM24.92 32.8C24.36 32.8 23.91 32.35 23.91 31.79C23.91 26.78 27.92 22.71 32.85 22.71C37.78 22.71 41.79 26.77 41.79 31.76C41.79 32.32 41.34 32.77 40.79 32.77C40.24 32.77 39.79 32.32 39.79 31.76C39.79 27.88 36.68 24.72 32.85 24.72C29.03 24.72 25.92 27.9 25.92 31.79C25.92 32.35 25.47 32.8 24.92 32.8Z" />
		</g>
	</g>
</svg>