<svg xmlns="http://www.w3.org/2000/svg" width="56.531" height="56.53" viewBox="0 0 56.531 56.53">
  <metadata><?xpacket begin="﻿" id="W5M0MpCehiHzreSzNTczkc9d"?>
<x:xmpmeta xmlns:x="adobe:ns:meta/" x:xmptk="Adobe XMP Core 5.6-c140 79.160451, 2017/05/06-01:08:21        ">
   <rdf:RDF xmlns:rdf="http://www.w3.org/1999/02/22-rdf-syntax-ns#">
      <rdf:Description rdf:about=""/>
   </rdf:RDF>
</x:xmpmeta>
                                                                                                    
                                                                                                    
                                                                                                    
                                                                                                    
                                                                                                    
                                                                                                    
                                                                                                    
                                                                                                    
                                                                                                    
                                                                                                    
                                                                                                    
                                                                                                    
                                                                                                    
                                                                                                    
                                                                                                    
                                                                                                    
                                                                                                    
                                                                                                    
                                                                                                    
                                                                                                    
                           
<?xpacket end="w"?></metadata>
<defs>
    <style>
      .cls-1 {
        fill: #5474fd;
        fill-rule: evenodd;
      }
    </style>
  </defs>
  <path id="_" data-name="" class="cls-1" d="M548.266,1673.81l-2.954,2.96L529,1660.45a18,18,0,0,1-3.094,2.25,24.059,24.059,0,0,1-3.515,1.69,20.8,20.8,0,0,1-3.868,1.06,24.021,24.021,0,0,1-4.007.35,21.867,21.867,0,0,1-8.93-1.83,23.622,23.622,0,0,1-7.242-4.92,22.523,22.523,0,0,1-4.852-7.25,22.224,22.224,0,0,1-1.758-8.78,22.6,22.6,0,0,1,22.782-22.79,22.337,22.337,0,0,1,8.789,1.76,22.794,22.794,0,0,1,7.242,4.85,23.707,23.707,0,0,1,4.922,7.25,21.9,21.9,0,0,1,1.828,8.93,23.551,23.551,0,0,1-.352,4,20.544,20.544,0,0,1-1.054,3.87,24.84,24.84,0,0,1-1.688,3.52,18.988,18.988,0,0,1-2.25,3.09l16.313,16.31h0Zm-54.141-30.79a19.963,19.963,0,0,0,1.547,7.87,20.187,20.187,0,0,0,4.359,6.47,20.879,20.879,0,0,0,6.539,4.43,19.709,19.709,0,0,0,7.946,1.62,19.226,19.226,0,0,0,7.875-1.62,21.318,21.318,0,0,0,10.9-10.9,19.26,19.26,0,0,0,1.617-7.87,19.776,19.776,0,0,0-1.617-7.95,21.078,21.078,0,0,0-4.43-6.54,20.279,20.279,0,0,0-6.468-4.36,20.032,20.032,0,0,0-7.875-1.55,20.538,20.538,0,0,0-7.946,1.55,20.036,20.036,0,0,0-10.9,10.9,20.5,20.5,0,0,0-1.547,7.95h0Z" transform="translate(-491.719 -1620.22)"/>
</svg>
