<svg width="20" height="18" viewBox="0 0 20 18" fill="none" xmlns="http://www.w3.org/2000/svg">
<path d="M18.125 8.75H15V6.25C15 4.87109 16.1211 3.75 17.5 3.75H17.8125C18.332 3.75 18.75 3.33203 18.75 2.8125V0.9375C18.75 0.417969 18.332 0 17.8125 0H17.5C14.0469 0 11.25 2.79687 11.25 6.25V15.625C11.25 16.6602 12.0898 17.5 13.125 17.5H18.125C19.1602 17.5 20 16.6602 20 15.625V10.625C20 9.58984 19.1602 8.75 18.125 8.75ZM6.875 8.75H3.75V6.25C3.75 4.87109 4.87109 3.75 6.25 3.75H6.5625C7.08203 3.75 7.5 3.33203 7.5 2.8125V0.9375C7.5 0.417969 7.08203 0 6.5625 0H6.25C2.79687 0 0 2.79687 0 6.25V15.625C0 16.6602 0.839844 17.5 1.875 17.5H6.875C7.91016 17.5 8.75 16.6602 8.75 15.625V10.625C8.75 9.58984 7.91016 8.75 6.875 8.75Z" fill="#5474FD"/>
</svg>
