<svg width="18" height="18" viewBox="0 0 18 18" fill="none" xmlns="http://www.w3.org/2000/svg">
<path d="M4.0292 18H0.297328V5.98232H4.0292V18ZM2.16125 4.343C0.967923 4.343 0 3.35458 0 2.16125C8.54135e-09 1.58805 0.227703 1.03833 0.633017 0.633016C1.03833 0.227703 1.58805 0 2.16125 0C2.73445 0 3.28418 0.227703 3.68949 0.633016C4.0948 1.03833 4.32251 1.58805 4.32251 2.16125C4.32251 3.35458 3.35418 4.343 2.16125 4.343ZM17.9964 18H14.2726V12.1499C14.2726 10.7556 14.2444 8.96766 12.3323 8.96766C10.392 8.96766 10.0947 10.4824 10.0947 12.0494V18H6.36684V5.98232H9.94603V7.62164H9.99826C10.4965 6.67743 11.7135 5.68098 13.5292 5.68098C17.3061 5.68098 18.0004 8.16808 18.0004 11.3985V18H17.9964Z" fill="black"/>
</svg>
