<svg width="18" height="18" viewBox="0 0 18 18" fill="none" xmlns="http://www.w3.org/2000/svg">
<path d="M18 9C18 13.9718 13.9718 18 9 18C8.07097 18 7.17823 17.8585 6.33629 17.5972C6.70282 16.9984 7.25081 16.0185 7.45403 15.2383C7.5629 14.8173 8.0129 13.0972 8.0129 13.0972C8.30685 13.656 9.16331 14.1315 10.0742 14.1315C12.7887 14.1315 14.7448 11.6347 14.7448 8.53185C14.7448 5.55968 12.3169 3.33508 9.19597 3.33508C5.3129 3.33508 3.24798 5.94073 3.24798 8.78226C3.24798 10.1032 3.95202 11.7472 5.07339 12.2698C5.24395 12.3496 5.33468 12.3133 5.3746 12.15C5.40363 12.0266 5.55605 11.4133 5.625 11.1302C5.64677 11.0395 5.63589 10.9597 5.56331 10.8726C5.19677 10.419 4.89919 9.59153 4.89919 8.81855C4.89919 6.83347 6.40161 4.91371 8.96371 4.91371C11.1738 4.91371 12.7234 6.41976 12.7234 8.5754C12.7234 11.0105 11.4931 12.698 9.89274 12.698C9.01089 12.698 8.34677 11.9685 8.56089 11.0722C8.81492 10.0016 9.30484 8.84758 9.30484 8.0746C9.30484 7.38508 8.93468 6.80806 8.16532 6.80806C7.26169 6.80806 6.53589 7.74073 6.53589 8.99274C6.53589 9.79113 6.80444 10.3282 6.80444 10.3282C6.80444 10.3282 5.91532 14.0952 5.75202 14.7992C5.57056 15.5758 5.64315 16.6718 5.71935 17.3831C2.37339 16.073 0 12.8141 0 9C0 4.02823 4.02823 0 9 0C13.9718 0 18 4.02823 18 9Z" fill="black"/>
</svg>
