<svg width="23" height="18" viewBox="0 0 23 18" fill="none" xmlns="http://www.w3.org/2000/svg">
<path d="M19.8844 4.48592C19.8984 4.68279 19.8984 4.8797 19.8984 5.07656C19.8984 11.0812 15.3282 18 6.97501 18C4.40156 18 2.01095 17.2547 0 15.961C0.365638 16.0031 0.717166 16.0172 1.09687 16.0172C3.22028 16.0172 5.17499 15.3 6.73594 14.0766C4.73906 14.0344 3.06561 12.7266 2.48904 10.9266C2.77032 10.9687 3.05155 10.9969 3.34689 10.9969C3.75469 10.9969 4.16253 10.9406 4.54219 10.8422C2.46095 10.4203 0.899963 8.59218 0.899963 6.38437V6.32814C1.50463 6.66564 2.20781 6.87657 2.95307 6.90467C1.72963 6.08902 0.928099 4.69685 0.928099 3.12184C0.928099 2.27811 1.15306 1.50467 1.54683 0.829666C3.78278 3.58591 7.14374 5.38588 10.9124 5.58279C10.8422 5.24529 10.7999 4.89376 10.7999 4.54219C10.7999 2.03904 12.825 0 15.3421 0C16.6499 0 17.8312 0.548436 18.6609 1.43437C19.6874 1.23751 20.6718 0.857802 21.5437 0.337502C21.2062 1.39221 20.489 2.27815 19.5468 2.84061C20.4609 2.74222 21.3468 2.48904 22.1624 2.13752C21.5438 3.03748 20.7703 3.83901 19.8844 4.48592V4.48592Z" fill="black"/>
</svg>
