<svg width="26" height="18" viewBox="0 0 26 18" fill="none" xmlns="http://www.w3.org/2000/svg">
<path d="M24.9672 2.81639C24.6739 1.7078 23.8098 0.834703 22.7127 0.538406C20.7241 0 12.75 0 12.75 0C12.75 0 4.77597 0 2.78732 0.538406C1.6902 0.83475 0.826119 1.7078 0.532847 2.81639C0 4.82578 0 9.01819 0 9.01819C0 9.01819 0 13.2106 0.532847 15.22C0.826119 16.3286 1.6902 17.1653 2.78732 17.4616C4.77597 18 12.75 18 12.75 18C12.75 18 20.724 18 22.7127 17.4616C23.8098 17.1653 24.6739 16.3286 24.9672 15.22C25.5 13.2106 25.5 9.01819 25.5 9.01819C25.5 9.01819 25.5 4.82578 24.9672 2.81639V2.81639ZM10.142 12.8246V5.2118L16.8068 9.01828L10.142 12.8246V12.8246Z" fill="black"/>
</svg>
